<mxfile host="65bd71144e">
    <diagram id="MJeuW75qIckmjCckpiGL" name="Page-1">
        <mxGraphModel dx="1137" dy="685" grid="1" gridSize="10" guides="1" tooltips="1" connect="1" arrows="1" fold="1" page="0" pageScale="1" pageWidth="850" pageHeight="1100" math="0" shadow="0">
            <root>
                <mxCell id="0"/>
                <mxCell id="1" parent="0"/>
                <mxCell id="33" value="Users" style="rounded=0;whiteSpace=wrap;html=1;fillColor=#dae8fc;strokeColor=#6c8ebf;" parent="1" vertex="1">
                    <mxGeometry x="120" y="280" width="160" height="40" as="geometry"/>
                </mxCell>
                <mxCell id="34" value="&lt;b&gt;id (uuid)&lt;br&gt;&lt;/b&gt;email (str)&lt;br&gt;hashed_password (str)&lt;br&gt;phone (str)&lt;br&gt;address (str)" style="rounded=0;whiteSpace=wrap;html=1;align=left;spacingLeft=4;horizontal=1;verticalAlign=top;" parent="1" vertex="1">
                    <mxGeometry x="120" y="320" width="160" height="90" as="geometry"/>
                </mxCell>
                <mxCell id="35" value="Theatres" style="rounded=0;whiteSpace=wrap;html=1;fillColor=#dae8fc;strokeColor=#6c8ebf;" parent="1" vertex="1">
                    <mxGeometry x="400" y="540" width="160" height="40" as="geometry"/>
                </mxCell>
                <mxCell id="36" value="&lt;b&gt;id (uuid)&lt;br&gt;&lt;/b&gt;name (str)&lt;br&gt;city (str)" style="rounded=0;whiteSpace=wrap;html=1;align=left;spacingLeft=4;horizontal=1;verticalAlign=top;" parent="1" vertex="1">
                    <mxGeometry x="400" y="580" width="160" height="60" as="geometry"/>
                </mxCell>
                <mxCell id="37" value="Screens" style="rounded=0;whiteSpace=wrap;html=1;fillColor=#dae8fc;strokeColor=#6c8ebf;" parent="1" vertex="1">
                    <mxGeometry x="400" y="760" width="160" height="40" as="geometry"/>
                </mxCell>
                <mxCell id="38" value="&lt;b&gt;id (uuid)&lt;br&gt;&lt;/b&gt;name (str)&lt;br&gt;&lt;u&gt;threatre_id (uuid) fk&lt;/u&gt;" style="rounded=0;whiteSpace=wrap;html=1;align=left;spacingLeft=4;horizontal=1;verticalAlign=top;" parent="1" vertex="1">
                    <mxGeometry x="400" y="800" width="160" height="60" as="geometry"/>
                </mxCell>
                <mxCell id="39" value="Seats" style="rounded=0;whiteSpace=wrap;html=1;fillColor=#dae8fc;strokeColor=#6c8ebf;" parent="1" vertex="1">
                    <mxGeometry x="680" y="750" width="160" height="40" as="geometry"/>
                </mxCell>
                <mxCell id="40" value="&lt;b&gt;id (uuid)&lt;br&gt;&lt;/b&gt;name (str)&lt;br&gt;row (str)&lt;br&gt;number (int)&lt;br&gt;status (str)&lt;br&gt;&lt;u&gt;screen_id (uuid) fk&lt;/u&gt;" style="rounded=0;whiteSpace=wrap;html=1;align=left;spacingLeft=4;horizontal=1;verticalAlign=top;" parent="1" vertex="1">
                    <mxGeometry x="680" y="790" width="160" height="100" as="geometry"/>
                </mxCell>
                <mxCell id="41" value="Shows" style="rounded=0;whiteSpace=wrap;html=1;fillColor=#dae8fc;strokeColor=#6c8ebf;" parent="1" vertex="1">
                    <mxGeometry x="400" y="1000" width="160" height="40" as="geometry"/>
                </mxCell>
                <mxCell id="42" value="&lt;b&gt;id (uuid)&lt;br&gt;&lt;/b&gt;start_time (datetime)&lt;br&gt;end_time (datetime)&lt;br&gt;&lt;u&gt;movie_id (uuid) fk&lt;/u&gt;" style="rounded=0;whiteSpace=wrap;html=1;align=left;spacingLeft=4;horizontal=1;verticalAlign=top;" parent="1" vertex="1">
                    <mxGeometry x="400" y="1040" width="160" height="70" as="geometry"/>
                </mxCell>
                <mxCell id="43" value="Movies" style="rounded=0;whiteSpace=wrap;html=1;fillColor=#dae8fc;strokeColor=#6c8ebf;" parent="1" vertex="1">
                    <mxGeometry x="400" y="1220" width="160" height="40" as="geometry"/>
                </mxCell>
                <mxCell id="44" value="&lt;b&gt;id (uuid)&lt;br&gt;&lt;/b&gt;name (str)&lt;br&gt;running_time (str)&lt;br&gt;director (str)&lt;br&gt;actors (array str)&lt;br&gt;genres (array str)&lt;br&gt;languages (array str)" style="rounded=0;whiteSpace=wrap;html=1;align=left;spacingLeft=4;horizontal=1;verticalAlign=top;" parent="1" vertex="1">
                    <mxGeometry x="400" y="1260" width="160" height="110" as="geometry"/>
                </mxCell>
                <mxCell id="45" value="Fares" style="rounded=0;whiteSpace=wrap;html=1;fillColor=#dae8fc;strokeColor=#6c8ebf;" vertex="1" parent="1">
                    <mxGeometry x="680" y="1000" width="160" height="40" as="geometry"/>
                </mxCell>
                <mxCell id="46" value="&lt;b&gt;id (uuid)&lt;/b&gt;&lt;br&gt;price (decimal)&lt;br&gt;&lt;u&gt;seat_type_id (int) fk&lt;br&gt;show_id (uuid) fk&lt;/u&gt;" style="rounded=0;whiteSpace=wrap;html=1;align=left;spacingLeft=4;horizontal=1;verticalAlign=top;" vertex="1" parent="1">
                    <mxGeometry x="680" y="1040" width="160" height="70" as="geometry"/>
                </mxCell>
                <mxCell id="47" value="FareTypes" style="rounded=0;whiteSpace=wrap;html=1;fillColor=#dae8fc;strokeColor=#6c8ebf;" vertex="1" parent="1">
                    <mxGeometry x="680" y="1220" width="160" height="40" as="geometry"/>
                </mxCell>
                <mxCell id="48" value="&lt;b&gt;id (int)&lt;br&gt;&lt;/b&gt;name (str)&lt;br&gt;slug (str)" style="rounded=0;whiteSpace=wrap;html=1;align=left;spacingLeft=4;horizontal=1;verticalAlign=top;" vertex="1" parent="1">
                    <mxGeometry x="680" y="1260" width="160" height="60" as="geometry"/>
                </mxCell>
                <mxCell id="54" value="" style="endArrow=none;html=1;exitX=0.5;exitY=1;exitDx=0;exitDy=0;entryX=0.5;entryY=0;entryDx=0;entryDy=0;" edge="1" parent="1" source="36" target="37">
                    <mxGeometry width="50" height="50" relative="1" as="geometry">
                        <mxPoint x="820" y="910" as="sourcePoint"/>
                        <mxPoint x="870" y="860" as="targetPoint"/>
                    </mxGeometry>
                </mxCell>
                <mxCell id="55" value="1" style="text;html=1;strokeColor=none;fillColor=none;align=center;verticalAlign=middle;whiteSpace=wrap;rounded=0;" vertex="1" parent="1">
                    <mxGeometry x="480" y="640" width="30" height="30" as="geometry"/>
                </mxCell>
                <mxCell id="56" value="n" style="text;html=1;strokeColor=none;fillColor=none;align=center;verticalAlign=middle;whiteSpace=wrap;rounded=0;" vertex="1" parent="1">
                    <mxGeometry x="480" y="730" width="30" height="30" as="geometry"/>
                </mxCell>
                <mxCell id="57" value="" style="endArrow=none;html=1;exitX=1;exitY=0.25;exitDx=0;exitDy=0;entryX=0;entryY=0.25;entryDx=0;entryDy=0;" edge="1" parent="1" source="38" target="40">
                    <mxGeometry width="50" height="50" relative="1" as="geometry">
                        <mxPoint x="580" y="780" as="sourcePoint"/>
                        <mxPoint x="630" y="730" as="targetPoint"/>
                    </mxGeometry>
                </mxCell>
                <mxCell id="58" value="1" style="text;html=1;strokeColor=none;fillColor=none;align=center;verticalAlign=middle;whiteSpace=wrap;rounded=0;" vertex="1" parent="1">
                    <mxGeometry x="560" y="790" width="30" height="30" as="geometry"/>
                </mxCell>
                <mxCell id="59" value="n" style="text;html=1;strokeColor=none;fillColor=none;align=center;verticalAlign=middle;whiteSpace=wrap;rounded=0;" vertex="1" parent="1">
                    <mxGeometry x="650" y="790" width="30" height="30" as="geometry"/>
                </mxCell>
                <mxCell id="60" value="" style="endArrow=none;html=1;exitX=0.5;exitY=0;exitDx=0;exitDy=0;entryX=0.5;entryY=1;entryDx=0;entryDy=0;" edge="1" parent="1" source="45" target="40">
                    <mxGeometry width="50" height="50" relative="1" as="geometry">
                        <mxPoint x="750" y="950" as="sourcePoint"/>
                        <mxPoint x="800" y="900" as="targetPoint"/>
                    </mxGeometry>
                </mxCell>
                <mxCell id="61" value="1" style="text;html=1;strokeColor=none;fillColor=none;align=center;verticalAlign=middle;whiteSpace=wrap;rounded=0;" vertex="1" parent="1">
                    <mxGeometry x="760" y="890" width="30" height="30" as="geometry"/>
                </mxCell>
                <mxCell id="62" value="n" style="text;html=1;strokeColor=none;fillColor=none;align=center;verticalAlign=middle;whiteSpace=wrap;rounded=0;" vertex="1" parent="1">
                    <mxGeometry x="760" y="970" width="30" height="30" as="geometry"/>
                </mxCell>
                <mxCell id="63" value="" style="endArrow=none;html=1;exitX=0.5;exitY=0;exitDx=0;exitDy=0;entryX=0.5;entryY=1;entryDx=0;entryDy=0;" edge="1" parent="1" source="47" target="46">
                    <mxGeometry width="50" height="50" relative="1" as="geometry">
                        <mxPoint x="750" y="1120" as="sourcePoint"/>
                        <mxPoint x="800" y="1070" as="targetPoint"/>
                    </mxGeometry>
                </mxCell>
                <mxCell id="64" value="1" style="text;html=1;strokeColor=none;fillColor=none;align=center;verticalAlign=middle;whiteSpace=wrap;rounded=0;" vertex="1" parent="1">
                    <mxGeometry x="760" y="1110" width="30" height="30" as="geometry"/>
                </mxCell>
                <mxCell id="65" value="1" style="text;html=1;strokeColor=none;fillColor=none;align=center;verticalAlign=middle;whiteSpace=wrap;rounded=0;" vertex="1" parent="1">
                    <mxGeometry x="760" y="1190" width="30" height="30" as="geometry"/>
                </mxCell>
                <mxCell id="66" value="" style="endArrow=none;html=1;exitX=1;exitY=0.25;exitDx=0;exitDy=0;entryX=0;entryY=0.25;entryDx=0;entryDy=0;" edge="1" parent="1" source="42" target="46">
                    <mxGeometry width="50" height="50" relative="1" as="geometry">
                        <mxPoint x="530" y="950" as="sourcePoint"/>
                        <mxPoint x="580" y="900" as="targetPoint"/>
                    </mxGeometry>
                </mxCell>
                <mxCell id="67" value="n" style="text;html=1;strokeColor=none;fillColor=none;align=center;verticalAlign=middle;whiteSpace=wrap;rounded=0;" vertex="1" parent="1">
                    <mxGeometry x="650" y="1030" width="30" height="30" as="geometry"/>
                </mxCell>
                <mxCell id="68" value="1" style="text;html=1;strokeColor=none;fillColor=none;align=center;verticalAlign=middle;whiteSpace=wrap;rounded=0;" vertex="1" parent="1">
                    <mxGeometry x="560" y="1030" width="30" height="30" as="geometry"/>
                </mxCell>
                <mxCell id="70" value="1" style="text;html=1;strokeColor=none;fillColor=none;align=center;verticalAlign=middle;whiteSpace=wrap;rounded=0;" vertex="1" parent="1">
                    <mxGeometry x="480" y="1110" width="30" height="30" as="geometry"/>
                </mxCell>
                <mxCell id="71" value="n" style="text;html=1;strokeColor=none;fillColor=none;align=center;verticalAlign=middle;whiteSpace=wrap;rounded=0;" vertex="1" parent="1">
                    <mxGeometry x="480" y="1190" width="30" height="30" as="geometry"/>
                </mxCell>
                <mxCell id="72" value="Reservations" style="rounded=0;whiteSpace=wrap;html=1;fillColor=#dae8fc;strokeColor=#6c8ebf;" vertex="1" parent="1">
                    <mxGeometry x="120" y="520" width="160" height="40" as="geometry"/>
                </mxCell>
                <mxCell id="73" value="&lt;b&gt;id (uuid)&lt;/b&gt;&lt;br&gt;code (str)&lt;br&gt;&lt;u&gt;screen_show_id (uuid) fk&lt;br&gt;user_id (uuid) fk&lt;/u&gt;" style="rounded=0;whiteSpace=wrap;html=1;align=left;spacingLeft=4;horizontal=1;verticalAlign=top;" vertex="1" parent="1">
                    <mxGeometry x="120" y="560" width="160" height="80" as="geometry"/>
                </mxCell>
                <mxCell id="74" value="" style="endArrow=none;html=1;exitX=0.5;exitY=0;exitDx=0;exitDy=0;entryX=0.5;entryY=1;entryDx=0;entryDy=0;" edge="1" parent="1" source="43" target="42">
                    <mxGeometry width="50" height="50" relative="1" as="geometry">
                        <mxPoint x="430" y="1050" as="sourcePoint"/>
                        <mxPoint x="460" y="1140" as="targetPoint"/>
                    </mxGeometry>
                </mxCell>
                <mxCell id="75" value="ScreenShowMapper" style="rounded=0;whiteSpace=wrap;html=1;fillColor=#dae8fc;strokeColor=#6c8ebf;" vertex="1" parent="1">
                    <mxGeometry x="120" y="760" width="160" height="40" as="geometry"/>
                </mxCell>
                <mxCell id="76" value="&lt;b&gt;id (uuid)&lt;br&gt;&lt;/b&gt;&lt;u&gt;screen_id (uuid) fk&lt;br&gt;show_id (uuid) fk&lt;/u&gt;" style="rounded=0;whiteSpace=wrap;html=1;align=left;spacingLeft=4;horizontal=1;verticalAlign=top;" vertex="1" parent="1">
                    <mxGeometry x="120" y="800" width="160" height="60" as="geometry"/>
                </mxCell>
                <mxCell id="77" value="" style="endArrow=none;html=1;exitX=0;exitY=0.25;exitDx=0;exitDy=0;entryX=1;entryY=0.25;entryDx=0;entryDy=0;" edge="1" parent="1" source="38" target="76">
                    <mxGeometry width="50" height="50" relative="1" as="geometry">
                        <mxPoint x="430" y="850" as="sourcePoint"/>
                        <mxPoint x="480" y="800" as="targetPoint"/>
                    </mxGeometry>
                </mxCell>
                <mxCell id="78" value="n" style="text;html=1;strokeColor=none;fillColor=none;align=center;verticalAlign=middle;whiteSpace=wrap;rounded=0;" vertex="1" parent="1">
                    <mxGeometry x="280" y="790" width="30" height="30" as="geometry"/>
                </mxCell>
                <mxCell id="79" value="1" style="text;html=1;strokeColor=none;fillColor=none;align=center;verticalAlign=middle;whiteSpace=wrap;rounded=0;" vertex="1" parent="1">
                    <mxGeometry x="370" y="790" width="30" height="30" as="geometry"/>
                </mxCell>
                <mxCell id="80" value="" style="endArrow=none;html=1;exitX=0.5;exitY=1;exitDx=0;exitDy=0;entryX=0;entryY=0.25;entryDx=0;entryDy=0;" edge="1" parent="1" source="76" target="42">
                    <mxGeometry width="50" height="50" relative="1" as="geometry">
                        <mxPoint x="430" y="850" as="sourcePoint"/>
                        <mxPoint x="480" y="800" as="targetPoint"/>
                        <Array as="points">
                            <mxPoint x="200" y="1058"/>
                        </Array>
                    </mxGeometry>
                </mxCell>
                <mxCell id="81" value="n" style="text;html=1;strokeColor=none;fillColor=none;align=center;verticalAlign=middle;whiteSpace=wrap;rounded=0;" vertex="1" parent="1">
                    <mxGeometry x="200" y="860" width="30" height="30" as="geometry"/>
                </mxCell>
                <mxCell id="82" value="1" style="text;html=1;strokeColor=none;fillColor=none;align=center;verticalAlign=middle;whiteSpace=wrap;rounded=0;" vertex="1" parent="1">
                    <mxGeometry x="370" y="1030" width="30" height="30" as="geometry"/>
                </mxCell>
                <mxCell id="83" value="" style="endArrow=none;html=1;exitX=0.5;exitY=0;exitDx=0;exitDy=0;entryX=0.5;entryY=1;entryDx=0;entryDy=0;" edge="1" parent="1" source="75" target="73">
                    <mxGeometry width="50" height="50" relative="1" as="geometry">
                        <mxPoint x="430" y="650" as="sourcePoint"/>
                        <mxPoint x="480" y="600" as="targetPoint"/>
                    </mxGeometry>
                </mxCell>
                <mxCell id="84" value="1" style="text;html=1;strokeColor=none;fillColor=none;align=center;verticalAlign=middle;whiteSpace=wrap;rounded=0;" vertex="1" parent="1">
                    <mxGeometry x="200" y="640" width="30" height="30" as="geometry"/>
                </mxCell>
                <mxCell id="85" value="1" style="text;html=1;strokeColor=none;fillColor=none;align=center;verticalAlign=middle;whiteSpace=wrap;rounded=0;" vertex="1" parent="1">
                    <mxGeometry x="200" y="730" width="30" height="30" as="geometry"/>
                </mxCell>
                <mxCell id="86" value="" style="endArrow=none;html=1;entryX=0.5;entryY=1;entryDx=0;entryDy=0;exitX=0.5;exitY=0;exitDx=0;exitDy=0;" edge="1" parent="1" source="72" target="34">
                    <mxGeometry width="50" height="50" relative="1" as="geometry">
                        <mxPoint x="180" y="560" as="sourcePoint"/>
                        <mxPoint x="230" y="510" as="targetPoint"/>
                    </mxGeometry>
                </mxCell>
                <mxCell id="87" value="1" style="text;html=1;strokeColor=none;fillColor=none;align=center;verticalAlign=middle;whiteSpace=wrap;rounded=0;" vertex="1" parent="1">
                    <mxGeometry x="200" y="410" width="30" height="30" as="geometry"/>
                </mxCell>
                <mxCell id="88" value="n" style="text;html=1;strokeColor=none;fillColor=none;align=center;verticalAlign=middle;whiteSpace=wrap;rounded=0;" vertex="1" parent="1">
                    <mxGeometry x="200" y="490" width="30" height="30" as="geometry"/>
                </mxCell>
            </root>
        </mxGraphModel>
    </diagram>
</mxfile>